<svg width="30" height="30" viewBox="0 0 30 30" fill="none" xmlns="http://www.w3.org/2000/svg">
<path fill-rule="evenodd" clip-rule="evenodd" d="M17.5 6.25C17.5 4.17893 19.1789 2.5 21.25 2.5H23.75C25.8211 2.5 27.5 4.17893 27.5 6.25V23.75C27.5 25.8211 25.8211 27.5 23.75 27.5H21.25C20.2896 27.5 19.4134 27.1389 18.75 26.5451C18.0866 27.1389 17.2104 27.5 16.25 27.5H13.75C12.7896 27.5 11.9134 27.1389 11.25 26.5451C10.5866 27.1389 9.71044 27.5 8.75 27.5H6.25C4.17893 27.5 2.5 25.8211 2.5 23.75V16.25C2.5 14.1789 4.17893 12.5 6.25 12.5H8.75C9.18829 12.5 9.60903 12.5752 10 12.7134V11.25C10 9.17893 11.6789 7.5 13.75 7.5H16.25C16.6883 7.5 17.109 7.57519 17.5 7.71338V6.25ZM20 23.75C20 24.4404 20.5596 25 21.25 25H23.75C24.4404 25 25 24.4404 25 23.75V6.25C25 5.55964 24.4404 5 23.75 5H21.25C20.5596 5 20 5.55964 20 6.25V23.75ZM17.5 11.25C17.5 10.5596 16.9404 10 16.25 10H13.75C13.0596 10 12.5 10.5596 12.5 11.25V23.75C12.5 24.4404 13.0596 25 13.75 25H16.25C16.9404 25 17.5 24.4404 17.5 23.75V11.25ZM10 16.25C10 15.5596 9.44036 15 8.75 15H6.25C5.55964 15 5 15.5596 5 16.25V23.75C5 24.4404 5.55964 25 6.25 25H8.75C9.44036 25 10 24.4404 10 23.75V16.25Z" fill="#2DD4BF"/>
</svg>
