<svg width="24" height="25" viewBox="0 0 24 25" fill="none" xmlns="http://www.w3.org/2000/svg">
<path fill-rule="evenodd" clip-rule="evenodd" d="M3.51227 12.3154C4.74799 15.812 8.08311 18.3154 12.0005 18.3154C15.9178 18.3154 19.2529 15.812 20.4886 12.3155C19.2529 8.81888 15.9178 6.31543 12.0004 6.31543C8.08311 6.31543 4.74801 8.81885 3.51227 12.3154ZM1.5042 12.0157C2.90562 7.55385 7.07354 4.31543 12.0004 4.31543C16.9274 4.31543 21.0953 7.55389 22.4967 12.0158C22.558 12.2109 22.558 12.4201 22.4967 12.6151C21.0953 17.077 16.9274 20.3154 12.0005 20.3154C7.07353 20.3154 2.9056 17.077 1.5042 12.615C1.44293 12.42 1.44294 12.2108 1.5042 12.0157ZM12 10.3154C10.8954 10.3154 10 11.2109 10 12.3154C10 13.42 10.8954 14.3154 12 14.3154C13.1046 14.3154 14 13.42 14 12.3154C14 11.2109 13.1046 10.3154 12 10.3154ZM8 12.3154C8 10.1063 9.79086 8.31543 12 8.31543C14.2091 8.31543 16 10.1063 16 12.3154C16 14.5246 14.2091 16.3154 12 16.3154C9.79086 16.3154 8 14.5246 8 12.3154Z" fill="#D1D5DB"/>
</svg>
