<svg width="50" height="37" viewBox="0 0 50 37" fill="none" xmlns="http://www.w3.org/2000/svg">
<path d="M23.871 16.3043C26.7723 16.3043 29.1242 13.9524 29.1242 11.0512C29.1242 8.15 26.7723 5.7981 23.871 5.7981C20.9698 5.7981 18.6179 8.15 18.6179 11.0512C18.6179 13.9524 20.9698 16.3043 23.871 16.3043Z" fill="#2DD4BF"/>
<path d="M49.5929 6.88522C49.2726 9.83209 46.7742 12.1704 43.7953 12.3305C43.7632 12.3305 43.7632 12.3305 43.7312 12.3305C42.0656 12.3946 40.464 13.1313 39.407 14.4126L29.9578 25.7516C28.9968 26.9048 28.5804 28.4743 28.9648 29.9157C29.0929 30.3962 29.157 30.9407 29.1249 31.4532C28.9968 34.1118 26.8187 36.322 24.1281 36.4501C21.1171 36.5782 18.6507 34.1759 18.6507 31.229V31.1969C18.6507 29.7235 18.0421 28.2821 16.889 27.3532L9.00932 21.043C7.92026 20.1782 6.51088 19.8899 5.16557 20.1782C4.78119 20.2423 4.39681 20.2743 3.98041 20.2423C1.96244 20.0821 0.296816 18.5126 0.0405654 16.5266C-0.34381 13.6758 2.05853 11.2735 4.90931 11.6579C6.92728 11.9141 8.49682 13.6118 8.62494 15.6618C8.62494 15.6938 8.62494 15.6938 8.62494 15.7258C8.689 17.1993 9.36166 18.5446 10.5148 19.4415L18.2984 25.3352C19.4835 26.2321 21.021 26.6165 22.4624 26.2001C22.9109 26.072 23.3593 26.0079 23.8718 26.0079C23.8718 26.0079 23.8718 26.0079 23.9039 26.0079C25.3773 26.0079 26.8187 25.3673 27.7156 24.1821L36.4921 12.6508C37.5492 11.2415 37.9335 9.44772 37.4851 7.71803C37.325 7.07741 37.2609 6.40475 37.2929 5.73209C37.4851 2.75318 39.8875 0.31881 42.8343 0.0305283C46.7742 -0.353847 50.0414 2.94537 49.5929 6.88522Z" fill="#2DD4BF"/>
</svg>
