<svg width="84" height="61" viewBox="0 0 84 61" fill="none" xmlns="http://www.w3.org/2000/svg">
<path d="M40.4665 26.972C45.2561 26.972 49.139 23.0922 49.139 18.3063C49.139 13.5204 45.2561 9.64062 40.4665 9.64062C35.6768 9.64062 31.7939 13.5204 31.7939 18.3063C31.7939 23.0922 35.6768 26.972 40.4665 26.972Z" fill="#2DD4BF"/>
<path d="M83.0195 11.3738C82.4991 16.2844 78.3363 20.0973 73.4219 20.3862C73.3641 20.3862 73.3641 20.3862 73.3063 20.3862C70.5311 20.5017 67.9293 21.7149 66.137 23.8524L50.5265 42.6281C48.9076 44.5345 48.2716 47.1342 48.8498 49.5029C49.0811 50.3117 49.1389 51.1782 49.0811 52.0448C48.9076 56.4932 45.2652 60.075 40.8133 60.3061C35.841 60.5372 31.7361 56.551 31.7361 51.6404V51.5826C31.7361 49.0985 30.7532 46.7876 28.7874 45.2278L15.8365 34.829C14.0441 33.3847 11.7315 32.9225 9.47663 33.3847C8.84064 33.5002 8.20466 33.558 7.51086 33.5002C4.21531 33.2691 1.4401 30.6694 0.977567 27.3765C0.341584 22.6392 4.33094 18.7108 9.01409 19.2885C12.3675 19.7507 14.9692 22.5237 15.2005 25.8744V25.9322C15.3161 28.3586 16.4146 30.6117 18.3226 32.0559L31.2157 41.8193C33.1815 43.3213 35.7254 43.8991 38.0959 43.2636C38.8475 43.0903 39.5991 42.9747 40.4086 42.9747C40.4086 42.9747 40.4086 42.9747 40.4664 42.9747C42.9525 42.9747 45.2652 41.9348 46.7684 39.9706L61.2804 20.9061C63.0727 18.5952 63.7087 15.5911 62.9571 12.7603C62.668 11.7205 62.5524 10.6228 62.668 9.46738C63.0149 4.55683 66.9464 0.512839 71.8609 0.0506689C78.3363 -0.584815 83.7711 4.84568 83.0195 11.3738Z" fill="#2DD4BF"/>
</svg>
