<svg width="30" height="30" viewBox="0 0 30 30" fill="none" xmlns="http://www.w3.org/2000/svg">
<path fill-rule="evenodd" clip-rule="evenodd" d="M15 6.25C13.6193 6.25 12.5 7.36929 12.5 8.75C12.5 10.1307 13.6193 11.25 15 11.25C16.3807 11.25 17.5 10.1307 17.5 8.75C17.5 7.36929 16.3807 6.25 15 6.25ZM10 8.75C10 5.98858 12.2386 3.75 15 3.75C17.7614 3.75 20 5.98858 20 8.75C20 11.5114 17.7614 13.75 15 13.75C12.2386 13.75 10 11.5114 10 8.75ZM6.25 11.25C5.55964 11.25 5 11.8096 5 12.5C5 13.1904 5.55964 13.75 6.25 13.75C6.94036 13.75 7.5 13.1904 7.5 12.5C7.5 11.8096 6.94036 11.25 6.25 11.25ZM2.5 12.5C2.5 10.4289 4.17893 8.75 6.25 8.75C8.32107 8.75 10 10.4289 10 12.5C10 14.5711 8.32107 16.25 6.25 16.25C4.17893 16.25 2.5 14.5711 2.5 12.5ZM23.75 11.25C23.0596 11.25 22.5 11.8096 22.5 12.5C22.5 13.1904 23.0596 13.75 23.75 13.75C24.4404 13.75 25 13.1904 25 12.5C25 11.8096 24.4404 11.25 23.75 11.25ZM20 12.5C20 10.4289 21.6789 8.75 23.75 8.75C25.8211 8.75 27.5 10.4289 27.5 12.5C27.5 14.5711 25.8211 16.25 23.75 16.25C21.6789 16.25 20 14.5711 20 12.5ZM15 17.5C12.8968 17.5 11.094 18.799 10.3558 20.6431C10.1267 21.2156 10 21.8415 10 22.5V23.75H20V22.5C20 21.8415 19.8733 21.2156 19.6442 20.6431C18.906 18.799 17.1032 17.5 15 17.5ZM22.5 23.75H26.25V22.5C26.25 21.1193 25.1307 20 23.75 20C23.1799 20 22.6546 20.1901 22.2334 20.5122C22.4073 21.1462 22.5 21.8131 22.5 22.5V23.75ZM21.1608 18.2221C19.8068 16.2757 17.5534 15 15 15C12.4466 15 10.1932 16.2757 8.83922 18.2221C8.08426 17.7643 7.19787 17.5 6.25 17.5C3.48858 17.5 1.25 19.7386 1.25 22.5V25C1.25 25.6904 1.80964 26.25 2.5 26.25H27.5C28.1904 26.25 28.75 25.6904 28.75 25V22.5C28.75 19.7386 26.5114 17.5 23.75 17.5C22.8021 17.5 21.9157 17.7643 21.1608 18.2221ZM7.76659 20.5122C7.3454 20.1901 6.82009 20 6.25 20C4.86929 20 3.75 21.1193 3.75 22.5V23.75H7.5V22.5C7.5 21.8131 7.59267 21.1462 7.76659 20.5122Z" fill="white"/>
</svg>
