<svg width="30" height="30" viewBox="0 0 30 30" fill="none" xmlns="http://www.w3.org/2000/svg">
<path fill-rule="evenodd" clip-rule="evenodd" d="M15 5C9.47715 5 5 9.47715 5 15C5 17.0996 5.64706 19.0481 6.75266 20.6569C9.24264 19.4355 12.0427 18.75 15 18.75C17.9573 18.75 20.7574 19.4355 23.2473 20.6569C24.3529 19.0481 25 17.0996 25 15C25 9.47715 20.5228 5 15 5ZM24.5678 23.0445C26.3976 20.8705 27.5 18.064 27.5 15C27.5 8.09644 21.9036 2.5 15 2.5C8.09644 2.5 2.5 8.09644 2.5 15C2.5 18.064 3.60241 20.8705 5.43222 23.0445C5.44211 23.0567 5.4522 23.0686 5.46248 23.0804C7.75536 25.784 11.1773 27.5 15 27.5C18.8227 27.5 22.2446 25.784 24.5375 23.0804C24.5478 23.0687 24.5579 23.0567 24.5678 23.0445ZM21.4983 22.601C19.5093 21.7322 17.3121 21.25 15 21.25C12.6879 21.25 10.4907 21.7322 8.50171 22.601C10.2495 24.0967 12.5193 25 15 25C17.4807 25 19.7505 24.0967 21.4983 22.601ZM15 10C13.6193 10 12.5 11.1193 12.5 12.5C12.5 13.8807 13.6193 15 15 15C16.3807 15 17.5 13.8807 17.5 12.5C17.5 11.1193 16.3807 10 15 10ZM10 12.5C10 9.73858 12.2386 7.5 15 7.5C17.7614 7.5 20 9.73858 20 12.5C20 15.2614 17.7614 17.5 15 17.5C12.2386 17.5 10 15.2614 10 12.5Z" fill="white"/>
</svg>
